<?xml version="1.0" encoding="UTF-8" standalone="no"?>
<!-- Created with Inkscape (http://www.inkscape.org/) -->

<svg
   width="54.739761mm"
   height="13.447969mm"
   viewBox="0 0 54.739761 13.447969"
   version="1.1"
   id="svg5"
   inkscape:version="1.1.2 (0a00cf5339, 2022-02-04, custom)"
   sodipodi:docname="logo.svg"
   xmlns:inkscape="http://www.inkscape.org/namespaces/inkscape"
   xmlns:sodipodi="http://sodipodi.sourceforge.net/DTD/sodipodi-0.dtd"
   xmlns:xlink="http://www.w3.org/1999/xlink"
   xmlns="http://www.w3.org/2000/svg"
   xmlns:svg="http://www.w3.org/2000/svg">
  <sodipodi:namedview
     id="namedview7"
     pagecolor="#ffffff"
     bordercolor="#666666"
     borderopacity="1.0"
     inkscape:pageshadow="2"
     inkscape:pageopacity="0.0"
     inkscape:pagecheckerboard="0"
     inkscape:document-units="mm"
     showgrid="false"
     inkscape:zoom="1.5248483"
     inkscape:cx="123.29095"
     inkscape:cy="-43.282993"
     inkscape:window-width="1920"
     inkscape:window-height="1015"
     inkscape:window-x="0"
     inkscape:window-y="37"
     inkscape:window-maximized="1"
     inkscape:current-layer="text2056"
     fit-margin-top="0"
     fit-margin-left="0"
     fit-margin-right="0"
     fit-margin-bottom="0" />
  <defs
     id="defs2">
    <linearGradient
       inkscape:collect="always"
       id="linearGradient14217">
      <stop
         style="stop-color:#000000;stop-opacity:1;"
         offset="0"
         id="stop14213" />
      <stop
         style="stop-color:#000000;stop-opacity:0;"
         offset="1"
         id="stop14215" />
    </linearGradient>
    <rect
       x="133.91209"
       y="233.42911"
       width="572.6911"
       height="270.64307"
       id="rect2058" />
    <linearGradient
       inkscape:collect="always"
       xlink:href="#linearGradient14217"
       id="linearGradient14219"
       x1="244.55479"
       y1="221.66519"
       x2="280.44006"
       y2="177.59053"
       gradientUnits="userSpaceOnUse"
       gradientTransform="matrix(0.66454271,0,0,0.66454271,60.406907,124.28466)" />
  </defs>
  <g
     inkscape:label="Layer 1"
     inkscape:groupmode="layer"
     id="layer1"
     transform="translate(-37.948589,-63.718172)">
    <g
       aria-label="JMEPath"
       transform="scale(0.26458333)"
       id="text2056"
       style="font-size:48px;line-height:1.25;font-family:Chandas;-inkscape-font-specification:'Chandas, Normal';letter-spacing:0px;word-spacing:0px;white-space:pre;shape-inside:url(#rect2058)">
      <g
         id="jme">
        <path
           d="m 150.62306,242.11151 h 4.73437 v 32.55469 q 0,6.32812 -2.41406,9.1875 -2.39063,2.85937 -7.71094,2.85937 h -1.80469 v -3.98437 h 1.47657 q 3.14062,0 4.42968,-1.75782 1.28907,-1.75781 1.28907,-6.30468 z"
           style="font-family:'DejaVu Sans';-inkscape-font-specification:'DejaVu Sans';fill:#4b4b4b;fill-opacity:1"
           id="path10565" />
        <path
           d="m 158.76758,242.11151 h 7.05468 l 8.92969,23.8125 8.97656,-23.8125 h 7.05469 v 34.99219 h -4.61719 v -30.72657 l -9.02343,24 h -4.75782 l -9.02343,-24 v 30.72657 h -4.59375 z"
           style="font-family:'DejaVu Sans';-inkscape-font-specification:'DejaVu Sans';fill:#4b4b4b;fill-opacity:1"
           id="path10567" />
        <path
           d="m 194.19336,242.11151 h 22.125 v 3.98437 h -17.39063 v 10.35938 h 16.66407 v 3.98437 h -16.66407 v 12.67969 h 17.8125 v 3.98438 h -22.54687 z"
           style="font-family:'DejaVu Sans';-inkscape-font-specification:'DejaVu Sans';fill:#4b4b4b;fill-opacity:1"
           id="path10569" />
      </g>
      <g
         id="path"
         transform="translate(-15.00018,0.18964)">
        <path
           d="m 261.77148,242.11151 h 13.47657 q 6.02343,0 9.23437,2.97656 3.21094,2.95313 3.21094,8.4375 0,5.50781 -3.21094,8.48438 -3.21094,2.95312 -9.23437,2.95312 h -5.34375 v 12.14063 h -8.13282 z m 8.13282,6.53906 v 9.77344 h 4.47656 q 2.36719,0 3.65625,-1.26563 1.28906,-1.28906 1.28906,-3.63281 0,-2.34375 -1.28906,-3.60937 -1.28906,-1.26563 -3.65625,-1.26563 z"
           style="font-weight:bold;font-stretch:semi-condensed;font-family:'DejaVu Sans';-inkscape-font-specification:'DejaVu Sans Bold Semi-Condensed'"
           id="path10571" />
        <path
           d="m 302.38867,265.2912 q -2.36719,0 -3.5625,0.89062 -1.19531,0.89063 -1.19531,2.625 0,1.59375 0.96094,2.50781 0.96093,0.89063 2.67187,0.89063 2.13281,0 3.58594,-1.6875 1.45312,-1.71094 1.45312,-4.26563 v -0.96093 z m 11.53125,-3.16407 v 14.97657 h -7.61719 v -3.89063 q -1.52343,2.39063 -3.42187,3.49219 -1.89844,1.07812 -4.61719,1.07812 -3.67969,0 -5.97656,-2.36718 -2.27344,-2.39063 -2.27344,-6.1875 0,-4.61719 2.85938,-6.77344 2.85937,-2.15625 8.97656,-2.15625 h 4.45312 v -0.65625 q 0,-1.99219 -1.42968,-2.90625 -1.40625,-0.9375 -4.38282,-0.9375 -2.4375,0 -4.52343,0.53906 -2.08594,0.53906 -3.89063,1.61719 v -6.39844 q 2.4375,-0.65625 4.875,-0.98437 2.46094,-0.35157 4.89844,-0.35157 6.39844,0 9.23437,2.8125 2.83594,2.78907 2.83594,9.09375 z"
           style="font-weight:bold;font-stretch:semi-condensed;font-family:'DejaVu Sans';-inkscape-font-specification:'DejaVu Sans Bold Semi-Condensed'"
           id="path10573" />
        <path
           d="m 329.17773,243.40057 v 7.45313 h 7.78125 v 6 h -7.78125 v 11.13281 q 0,1.82812 0.63282,2.48437 0.65625,0.63282 2.60156,0.63282 h 3.89062 v 6 h -6.46875 q -4.47656,0 -6.35156,-2.0625 -1.875,-2.08594 -1.875,-7.05469 V 256.8537 h -3.75 v -6 h 3.75 v -7.45313 z"
           style="font-weight:bold;font-stretch:semi-condensed;font-family:'DejaVu Sans';-inkscape-font-specification:'DejaVu Sans Bold Semi-Condensed'"
           id="path10575" />
        <path
           d="m 365.31836,261.11932 v 15.98438 h -7.59375 v -2.60157 -9.58593 q 0,-3.44532 -0.14063,-4.73438 -0.14062,-1.28906 -0.46875,-1.89844 -0.44531,-0.82031 -1.21875,-1.26562 -0.75,-0.46875 -1.71093,-0.46875 -2.36719,0 -3.72657,2.03906 -1.33593,2.01563 -1.33593,5.60156 v 12.91407 h -7.54688 v -36.46875 h 7.54688 v 14.0625 q 1.71093,-2.29688 3.63281,-3.375 1.92187,-1.10157 4.24219,-1.10157 4.07812,0 6.1875,2.78907 2.13281,2.78906 2.13281,8.10937 z"
           style="font-weight:bold;font-stretch:semi-condensed;font-family:'DejaVu Sans';-inkscape-font-specification:'DejaVu Sans Bold Semi-Condensed'"
           id="path10577" />
      </g>
      <path
         style="fill:url(#linearGradient14219);fill-opacity:1;stroke:none;stroke-width:0.664543px;stroke-linecap:butt;stroke-linejoin:miter;stroke-opacity:1"
         d="m 246.7713,242.30115 c -53.99568,9.34849 9.06584,15.55832 -30.03107,34.80255 l 19.20797,0.12246 c 18.91113,-20.96789 -21.00502,-24.04374 10.8231,-34.92501 z"
         id="s"
         sodipodi:nodetypes="cccc" />
      <g
         aria-label="Community Edition"
         id="subheading"
         style="font-size:13.3333px;fill:#000000;fill-opacity:1">
        <path
           d="m 167.17413,286.11772 q -0.42968,1.36068 -1.4453,2.0638 -1.00912,0.69661 -2.55859,0.69661 -0.95052,0 -1.76432,-0.32552 -0.8138,-0.32552 -1.44531,-0.95703 -0.72916,-0.72916 -1.08724,-1.65364 -0.35156,-0.93099 -0.35156,-2.10286 0,-2.26562 1.30859,-3.65233 1.30859,-1.39323 3.45052,-1.39323 0.79426,0 1.6927,0.20834 0.89843,0.20833 1.93359,0.6315 v 2.23958 h -0.73568 q -0.24088,-1.22395 -0.97005,-1.80338 -0.72265,-0.57942 -2.03124,-0.57942 -1.55599,0 -2.35677,1.10676 -0.80078,1.10026 -0.80078,3.24218 0,2.13541 0.80078,3.24218 0.80078,1.10026 2.35677,1.10026 1.08724,0 1.79036,-0.51432 0.70312,-0.52083 1.01562,-1.54948 z"
           style="font-family:'DejaVu Serif';-inkscape-font-specification:'DejaVu Serif';fill:#932200;fill-opacity:1;stroke:none;stroke-opacity:1"
           id="path31224" />
        <path
           d="m 171.98532,288.2336 q 0.96354,0 1.45182,-0.76171 0.49479,-0.76172 0.49479,-2.24609 0,-1.48437 -0.49479,-2.23958 -0.48828,-0.76172 -1.45182,-0.76172 -0.96354,0 -1.45833,0.76172 -0.48828,0.75521 -0.48828,2.23958 0,1.48437 0.49479,2.24609 0.49479,0.76171 1.45182,0.76171 z m 0,0.64453 q -1.51041,0 -2.42838,-0.99609 -0.91796,-1.0026 -0.91796,-2.65624 0,-1.65364 0.91145,-2.64973 0.91797,-0.9961 2.43489,-0.9961 1.51692,0 2.42838,0.9961 0.91797,0.99609 0.91797,2.64973 0,1.65364 -0.91797,2.65624 -0.91146,0.99609 -2.42838,0.99609 z"
           style="font-family:'DejaVu Serif';-inkscape-font-specification:'DejaVu Serif';fill:#932200;fill-opacity:1;stroke:none;stroke-opacity:1"
           id="path31226" />
        <path
           d="m 182.90977,283.11643 q 0.34506,-0.76172 0.87891,-1.14583 0.54036,-0.39063 1.25651,-0.39063 1.08723,0 1.62108,0.67709 0.53386,0.67057 0.53386,2.03124 v 3.71093 h 1.08072 v 0.6901 h -3.3203 v -0.6901 h 1.04166 v -3.57421 q 0,-1.0612 -0.3125,-1.51041 -0.31249,-0.44922 -1.03515,-0.44922 -0.80078,0 -1.22395,0.60547 -0.41667,0.60546 -0.41667,1.76431 v 3.16406 h 1.04166 v 0.6901 h -3.28124 v -0.6901 h 1.04167 v -3.61978 q 0,-1.03516 -0.3125,-1.47135 -0.3125,-0.44271 -1.03516,-0.44271 -0.80078,0 -1.22395,0.60547 -0.41667,0.60546 -0.41667,1.76431 v 3.16406 h 1.04167 v 0.6901 h -3.32031 v -0.6901 h 1.08073 v -5.54686 h -1.14583 v -0.68359 h 2.34374 v 1.23046 q 0.33203,-0.6901 0.84635,-1.05468 0.51433,-0.36459 1.16537,-0.36459 0.80729,0 1.34765,0.40365 0.54036,0.39713 0.72265,1.13281 z"
           style="font-family:'DejaVu Serif';-inkscape-font-specification:'DejaVu Serif';fill:#932200;fill-opacity:1;stroke:none;stroke-opacity:1"
           id="path31228" />
        <path
           d="m 195.55297,283.11643 q 0.34505,-0.76172 0.8789,-1.14583 0.54037,-0.39063 1.25651,-0.39063 1.08724,0 1.62109,0.67709 0.53385,0.67057 0.53385,2.03124 v 3.71093 h 1.08073 v 0.6901 h -3.3203 v -0.6901 h 1.04166 v -3.57421 q 0,-1.0612 -0.3125,-1.51041 -0.3125,-0.44922 -1.03515,-0.44922 -0.80078,0 -1.22396,0.60547 -0.41666,0.60546 -0.41666,1.76431 v 3.16406 h 1.04166 v 0.6901 h -3.28124 v -0.6901 h 1.04166 v -3.61978 q 0,-1.03516 -0.3125,-1.47135 -0.3125,-0.44271 -1.03515,-0.44271 -0.80078,0 -1.22396,0.60547 -0.41666,0.60546 -0.41666,1.76431 v 3.16406 h 1.04166 v 0.6901 h -3.3203 v -0.6901 h 1.08073 v -5.54686 h -1.14584 v -0.68359 h 2.34375 v 1.23046 q 0.33203,-0.6901 0.84635,-1.05468 0.51432,-0.36459 1.16536,-0.36459 0.80729,0 1.34766,0.40365 0.54036,0.39713 0.72265,1.13281 z"
           style="font-family:'DejaVu Serif';-inkscape-font-specification:'DejaVu Serif';fill:#932200;fill-opacity:1;stroke:none;stroke-opacity:1"
           id="path31230" />
        <path
           d="m 206.00867,281.76878 h 2.23958 v 6.23045 h 1.13281 v 0.6901 h -2.33072 v -1.22395 q -0.33203,0.6901 -0.85938,1.05468 -0.52734,0.35807 -1.22395,0.35807 -1.15234,0 -1.69922,-0.65104 -0.54036,-0.65755 -0.54036,-2.05728 v -3.70442 h -1.08073 v -0.69661 h 2.28515 v 4.02993 q 0,1.26302 0.30599,1.73177 0.3125,0.46875 1.10677,0.46875 0.83333,0 1.26953,-0.61198 0.4362,-0.61198 0.4362,-1.77734 v -3.14452 h -1.04167 z"
           style="font-family:'DejaVu Serif';-inkscape-font-specification:'DejaVu Serif';fill:#932200;fill-opacity:1;stroke:none;stroke-opacity:1"
           id="path31232" />
        <path
           d="m 210.42272,288.68933 v -0.6901 h 1.08073 v -5.53384 h -1.14583 v -0.69661 h 2.34374 v 1.23046 q 0.33203,-0.70312 0.85938,-1.06119 0.53385,-0.35808 1.23697,-0.35808 1.14583,0 1.6862,0.65755 0.54036,0.65755 0.54036,2.05078 v 3.71093 h 1.06771 v 0.6901 h -3.30729 v -0.6901 h 1.03516 v -3.33333 q 0,-1.26952 -0.3125,-1.73827 -0.3125,-0.47526 -1.10026,-0.47526 -0.83333,0 -1.26953,0.61198 -0.4362,0.60546 -0.4362,1.77082 v 3.16406 h 1.04167 v 0.6901 z"
           style="font-family:'DejaVu Serif';-inkscape-font-specification:'DejaVu Serif';fill:#932200;fill-opacity:1;stroke:none;stroke-opacity:1"
           id="path31234" />
        <path
           d="m 219.75864,279.62034 q 0,-0.29947 0.21484,-0.52083 0.22136,-0.22135 0.52735,-0.22135 0.29947,0 0.51432,0.22135 0.22135,0.22136 0.22135,0.52083 0,0.30599 -0.21484,0.52084 -0.21485,0.21484 -0.52083,0.21484 -0.30599,0 -0.52735,-0.21484 -0.21484,-0.21485 -0.21484,-0.52084 z m 1.52994,8.37889 h 1.13281 v 0.6901 h -3.47655 v -0.6901 h 1.14583 v -5.53384 h -1.14583 v -0.69661 h 2.34374 z"
           style="font-family:'DejaVu Serif';-inkscape-font-specification:'DejaVu Serif';fill:#932200;fill-opacity:1;stroke:none;stroke-opacity:1"
           id="path31236" />
        <path
           d="m 224.16618,282.46539 h -1.05469 v -0.69661 h 1.05469 v -2.14844 h 1.20442 v 2.14844 h 2.2526 v 0.69661 h -2.2526 v 4.39452 q 0,0.8789 0.16927,1.1263 0.16927,0.24739 0.625,0.24739 0.46875,0 0.68359,-0.27343 0.21485,-0.27995 0.22787,-0.89844 h 0.90494 q -0.0521,0.94401 -0.51432,1.38021 -0.46224,0.43619 -1.40625,0.43619 -1.03515,0 -1.46484,-0.45573 -0.42968,-0.46223 -0.42968,-1.56249 z"
           style="font-family:'DejaVu Serif';-inkscape-font-specification:'DejaVu Serif';fill:#932200;fill-opacity:1;stroke:none;stroke-opacity:1"
           id="path31238" />
        <path
           d="m 230.96304,289.95886 0.45573,-1.15234 -2.58463,-6.34113 h -0.78776 v -0.69661 h 3.18358 v 0.69661 h -1.10676 l 1.94661,4.7591 1.94661,-4.7591 h -1.03516 v -0.69661 h 2.59765 v 0.69661 h -0.77474 l -3.17056,7.78644 q -0.32552,0.80729 -0.72265,1.10025 -0.39714,0.29948 -1.11979,0.29948 -0.30599,0 -0.63151,-0.0521 -0.31901,-0.0521 -0.64453,-0.14974 v -1.32161 h 0.61198 q 0.0391,0.44271 0.22135,0.63151 0.1888,0.19531 0.57942,0.19531 0.35808,0 0.57292,-0.20182 0.22135,-0.19531 0.46224,-0.79427 z"
           style="font-family:'DejaVu Serif';-inkscape-font-specification:'DejaVu Serif';fill:#932200;fill-opacity:1;stroke:none;stroke-opacity:1"
           id="path31240" />
        <path
           d="m 240.59192,288.68933 v -0.6901 h 1.23698 v -8.33331 h -1.23698 v -0.69662 h 7.8255 v 2.16146 h -0.80078 v -1.36068 h -4.46613 v 3.2552 h 3.18359 v -1.21744 h 0.80077 v 3.22916 h -0.80077 v -1.21745 h -3.18359 v 4.069 h 4.5703 v -1.36067 h 0.80078 v 2.16145 z"
           style="font-family:'DejaVu Serif';-inkscape-font-specification:'DejaVu Serif';fill:#932200;fill-opacity:1;stroke:none;stroke-opacity:1"
           id="path31242" />
        <path
           d="m 256.58797,287.99923 h 1.14584 v 0.6901 h -2.34375 v -1.08073 q -0.35156,0.65104 -0.89843,0.96354 -0.54037,0.30599 -1.34115,0.30599 -1.27604,0 -2.08984,-1.00911 -0.80728,-1.01562 -0.80728,-2.64322 0,-1.6276 0.80728,-2.63671 0.80729,-1.00912 2.08984,-1.00912 0.80078,0 1.34115,0.3125 0.54687,0.30599 0.89843,0.95703 v -3.60025 h -1.13281 v -0.6901 h 2.33072 z m -1.19791,-2.42838 v -0.68359 q 0,-1.24349 -0.48177,-1.90104 -0.47526,-0.65755 -1.38671,-0.65755 -0.92448,0 -1.39974,0.72916 -0.46875,0.72917 -0.46875,2.16797 0,1.43229 0.46875,2.16796 0.47526,0.73568 1.39974,0.73568 0.91145,0 1.38671,-0.65104 0.48177,-0.65755 0.48177,-1.90755 z"
           style="font-family:'DejaVu Serif';-inkscape-font-specification:'DejaVu Serif';fill:#932200;fill-opacity:1;stroke:none;stroke-opacity:1"
           id="path31244" />
        <path
           d="m 259.42,279.62034 q 0,-0.29947 0.21484,-0.52083 0.22135,-0.22135 0.52734,-0.22135 0.29948,0 0.51432,0.22135 0.22136,0.22136 0.22136,0.52083 0,0.30599 -0.21484,0.52084 -0.21485,0.21484 -0.52084,0.21484 -0.30599,0 -0.52734,-0.21484 -0.21484,-0.21485 -0.21484,-0.52084 z m 1.52994,8.37889 h 1.13281 v 0.6901 h -3.47655 v -0.6901 h 1.14583 v -5.53384 h -1.14583 v -0.69661 h 2.34374 z"
           style="font-family:'DejaVu Serif';-inkscape-font-specification:'DejaVu Serif';fill:#932200;fill-opacity:1;stroke:none;stroke-opacity:1"
           id="path31246" />
        <path
           d="m 263.82754,282.46539 h -1.05469 v -0.69661 h 1.05469 v -2.14844 h 1.20442 v 2.14844 h 2.2526 v 0.69661 h -2.2526 v 4.39452 q 0,0.8789 0.16927,1.1263 0.16927,0.24739 0.625,0.24739 0.46875,0 0.68359,-0.27343 0.21485,-0.27995 0.22787,-0.89844 h 0.90494 q -0.0521,0.94401 -0.51432,1.38021 -0.46224,0.43619 -1.40624,0.43619 -1.03516,0 -1.46484,-0.45573 -0.42969,-0.46223 -0.42969,-1.56249 z"
           style="font-family:'DejaVu Serif';-inkscape-font-specification:'DejaVu Serif';fill:#932200;fill-opacity:1;stroke:none;stroke-opacity:1"
           id="path31248" />
        <path
           d="m 269.04237,279.62034 q 0,-0.29947 0.21484,-0.52083 0.22135,-0.22135 0.52734,-0.22135 0.29948,0 0.51432,0.22135 0.22136,0.22136 0.22136,0.52083 0,0.30599 -0.21485,0.52084 -0.21484,0.21484 -0.52083,0.21484 -0.30599,0 -0.52734,-0.21484 -0.21484,-0.21485 -0.21484,-0.52084 z m 1.52994,8.37889 h 1.13281 v 0.6901 h -3.47655 v -0.6901 h 1.14583 v -5.53384 h -1.14583 v -0.69661 h 2.34374 z"
           style="font-family:'DejaVu Serif';-inkscape-font-specification:'DejaVu Serif';fill:#932200;fill-opacity:1;stroke:none;stroke-opacity:1"
           id="path31250" />
        <path
           d="m 276.02151,288.2336 q 0.96354,0 1.45182,-0.76171 0.49479,-0.76172 0.49479,-2.24609 0,-1.48437 -0.49479,-2.23958 -0.48828,-0.76172 -1.45182,-0.76172 -0.96353,0 -1.45832,0.76172 -0.48828,0.75521 -0.48828,2.23958 0,1.48437 0.49479,2.24609 0.49479,0.76171 1.45181,0.76171 z m 0,0.64453 q -1.51041,0 -2.42837,-0.99609 -0.91797,-1.0026 -0.91797,-2.65624 0,-1.65364 0.91146,-2.64973 0.91796,-0.9961 2.43488,-0.9961 1.51693,0 2.42838,0.9961 0.91797,0.99609 0.91797,2.64973 0,1.65364 -0.91797,2.65624 -0.91145,0.99609 -2.42838,0.99609 z"
           style="font-family:'DejaVu Serif';-inkscape-font-specification:'DejaVu Serif';fill:#932200;fill-opacity:1;stroke:none;stroke-opacity:1"
           id="path31252" />
        <path
           d="m 280.58531,288.68933 v -0.6901 h 1.08073 v -5.53384 h -1.14583 v -0.69661 h 2.34374 v 1.23046 q 0.33203,-0.70312 0.85937,-1.06119 0.53386,-0.35808 1.23698,-0.35808 1.14583,0 1.68619,0.65755 0.54037,0.65755 0.54037,2.05078 v 3.71093 h 1.0677 v 0.6901 h -3.30728 v -0.6901 h 1.03515 v -3.33333 q 0,-1.26952 -0.3125,-1.73827 -0.3125,-0.47526 -1.10025,-0.47526 -0.83334,0 -1.26953,0.61198 -0.4362,0.60546 -0.4362,1.77082 v 3.16406 h 1.04166 v 0.6901 z"
           style="font-family:'DejaVu Serif';-inkscape-font-specification:'DejaVu Serif';fill:#932200;fill-opacity:1;stroke:none;stroke-opacity:1"
           id="path31254" />
      </g>
    </g>
  </g>
</svg>
